<svg width="200" height="200" viewBox="0 0 200 200" fill="none" xmlns="http://www.w3.org/2000/svg">
  <defs>
    <linearGradient id="grad1" x1="0%" y1="0%" x2="100%" y2="0%">
      <stop offset="0%" style="stop-color:#FF6B6B;stop-opacity:1" />
      <stop offset="100%" style="stop-color:#FF4444;stop-opacity:1" />
    </linearGradient>
    <linearGradient id="grad2" x1="0%" y1="0%" x2="100%" y2="0%">
      <stop offset="0%" style="stop-color:#FF4444;stop-opacity:1" />
      <stop offset="100%" style="stop-color:#E63946;stop-opacity:1" />
    </linearGradient>
    <linearGradient id="grad3" x1="0%" y1="0%" x2="100%" y2="0%">
      <stop offset="0%" style="stop-color:#E63946;stop-opacity:1" />
      <stop offset="100%" style="stop-color:#DC143C;stop-opacity:1" />
    </linearGradient>
    <linearGradient id="grad4" x1="0%" y1="0%" x2="100%" y2="0%">
      <stop offset="0%" style="stop-color:#DC143C;stop-opacity:1" />
      <stop offset="100%" style="stop-color:#B8122E;stop-opacity:1" />
    </linearGradient>
  </defs>
  
  <!-- Building 1 - Shortest -->
  <rect x="20" y="110" width="35" height="80" fill="url(#grad1)" rx="2" />
  <path d="M20 110 L37.5 95 L55 110 Z" fill="url(#grad1)" />
  
  <!-- Building 2 -->
  <rect x="60" y="85" width="35" height="105" fill="url(#grad2)" rx="2" />
  <path d="M60 85 L77.5 70 L95 85 Z" fill="url(#grad2)" />
  
  <!-- Building 3 -->
  <rect x="100" y="60" width="35" height="130" fill="url(#grad3)" rx="2" />
  <path d="M100 60 L117.5 45 L135 60 Z" fill="url(#grad3)" />
  
  <!-- Building 4 - Tallest with Vietnam map -->
  <rect x="140" y="35" width="35" height="155" fill="url(#grad4)" rx="2" />
  <path d="M140 35 L157.5 20 L175 35 Z" fill="url(#grad4)" />
  
  <!-- Vietnam map silhouette on tallest building -->
  <path
    d="M148 55 L150 50 L153 52 L155 56 L156 62 L155 68 L154 75 L152 82 L151 90 L150 98 L149 106 L148 114 L147 122 L146 130 L145 138 L144 145 L145 148 L147 146 L149 142 L151 136 L152 129 L153 122 L154 115 L155 108 L156 101 L157 94 L158 87 L157 80 L156 73 L155 66 L153 59 L151 54 L149 52 Z"
    fill="#FFFFFF"
    opacity="0.95"
  />
</svg>
