<svg width="18" height="15" viewBox="0 0 18 15" fill="none" xmlns="http://www.w3.org/2000/svg">
<path d="M17.0078 7.4375C17.3086 7.54688 17.5 7.82031 17.5 8.09375C17.5 11.5117 15.2578 13.3984 13.8633 13.918C13.7266 13.9727 13.5078 14.0273 13.2344 13.918C11.4844 13.2344 9.625 11.1289 9.625 8.09375C9.625 7.82031 9.81641 7.54688 10.0898 7.4375L13.2344 6.20703C13.5078 6.09766 13.7539 6.15234 13.8633 6.20703L17.0078 7.4375ZM13.5625 12.6602C14.4922 12.1953 15.9961 10.8828 16.1602 8.50391L13.5625 7.49219V12.6602ZM6.125 7C4.18359 7 2.625 5.44141 2.625 3.5C2.625 1.58594 4.18359 0 6.125 0C8.03906 0 9.625 1.58594 9.625 3.5C9.625 5.44141 8.03906 7 6.125 7ZM6.125 1.3125C4.89453 1.3125 3.9375 2.29688 3.9375 3.5C3.9375 4.73047 4.89453 5.6875 6.125 5.6875C7.32812 5.6875 8.3125 4.73047 8.3125 3.5C8.3125 2.29688 7.32812 1.3125 6.125 1.3125ZM11.5391 13.9727C11.1016 13.6172 10.6641 13.207 10.2812 12.6875H1.33984C1.53125 10.9648 3.00781 9.625 4.8125 9.625H7.4375C7.98438 9.625 8.50391 9.78906 8.96875 10.0078C8.85938 9.54297 8.77734 9.05078 8.75 8.50391C8.33984 8.39453 7.875 8.3125 7.4375 8.3125H4.8125C2.13281 8.3125 0 10.4727 0 13.125C0 13.6172 0.382812 14 0.875 14H11.375C11.4297 14 11.4844 14 11.5391 13.9727Z" fill="black"/>
</svg>
