<svg width="16" height="14" viewBox="0 0 16 14" fill="none" xmlns="http://www.w3.org/2000/svg">
<path d="M1.3125 12.25C1.3125 12.4961 1.50391 12.6875 1.75 12.6875H10.418C10.2266 13.4531 9.54297 14 8.75 14H1.72266C0.765625 14 0 13.2344 0 12.25V1.75C0 0.792969 0.765625 0 1.72266 0H6.69922C7.16406 0 7.60156 0.191406 7.92969 0.519531L9.98047 2.57031C10.3086 2.89844 10.5 3.33594 10.5 3.80078V5.66016L9.16016 6.97266V4.375H7C6.50781 4.375 6.125 3.99219 6.125 3.5V1.33984H1.75C1.50391 1.33984 1.3125 1.53125 1.3125 1.77734V12.25ZM7.98438 9.37891L12.3047 5.08594L14.1641 6.94531L9.87109 11.2656C9.78906 11.3477 9.67969 11.375 9.57031 11.375H7.4375C7 11.375 6.58984 11.1289 6.39844 10.7461C6.31641 10.582 6.17969 10.5547 6.125 10.5547C6.04297 10.5547 5.90625 10.582 5.82422 10.7188L5.63281 11.1562C5.55078 11.293 5.38672 11.375 5.25 11.375H5.19531C5.03125 11.375 4.86719 11.2656 4.8125 11.0742L4.375 9.70703L4.07422 10.582C3.91016 11.0742 3.47266 11.375 2.95312 11.375H2.625C2.37891 11.375 2.1875 11.1836 2.1875 10.9375C2.1875 10.7188 2.37891 10.5 2.625 10.5H2.95312C3.08984 10.5 3.19922 10.418 3.25391 10.3086L3.74609 8.80469C3.82812 8.53125 4.07422 8.36719 4.375 8.36719C4.64844 8.36719 4.89453 8.53125 4.97656 8.80469L5.35938 9.95312C5.90625 9.51562 6.83594 9.67969 7.16406 10.3359C7.21875 10.4453 7.32812 10.5 7.4375 10.5H7.875V9.67969C7.875 9.57031 7.90234 9.46094 7.98438 9.37891ZM15.5312 4.59375C15.8047 4.86719 15.8047 5.30469 15.5312 5.57812L14.793 6.31641L12.9336 4.45703L13.6719 3.71875C13.9453 3.44531 14.3828 3.44531 14.6562 3.71875L15.5312 4.59375Z" fill="black"/>
</svg>
