<svg width="14" height="18" viewBox="0 0 14 18" fill="none" xmlns="http://www.w3.org/2000/svg">
<path d="M7.5363 7.8996C4.41419 7.3092 3.41089 6.6996 3.41089 5.7492C3.41089 4.6596 4.80033 3.8988 7.12376 3.8988C9.57096 3.8988 10.4785 4.7484 10.5611 5.9988H13.6007C13.5693 5.09358 13.1151 4.22308 12.3128 3.53059C11.5105 2.8381 10.4079 2.36487 9.18647 2.1888V0H5.06106V2.16C2.39274 2.58 0.247524 3.84 0.247524 5.7696C0.247524 8.0796 2.87459 9.2292 6.71122 9.9C10.1485 10.5 10.8366 11.3796 10.8366 12.3096C10.8366 12.9996 10.1634 14.1 7.12376 14.1C4.29043 14.1 3.17657 13.1796 3.0264 12H0C0.104705 12.9655 0.666192 13.8748 1.58892 14.5731C2.51165 15.2715 3.73862 15.7158 5.06106 15.8304V18H9.18647V15.8496C11.868 15.48 14 14.3496 14 12.3C13.9934 9.4596 10.6568 8.49 7.5363 7.8996Z" fill="black"/>
</svg>
