<svg width="16" height="16" viewBox="0 0 16 16" fill="none" xmlns="http://www.w3.org/2000/svg">
<path d="M15.0553 15.9927H0.944668C0.694125 15.9927 0.453865 15.8932 0.276704 15.7161C0.0995437 15.5389 0 15.2987 0 15.0481C0 14.7976 0.0995437 14.5573 0.276704 14.3802C0.453865 14.203 0.694125 14.1035 0.944668 14.1035H15.0553C15.3059 14.1035 15.5461 14.203 15.7233 14.3802C15.9005 14.5573 16 14.7976 16 15.0481C16 15.2987 15.9005 15.5389 15.7233 15.7161C15.5461 15.8932 15.3059 15.9927 15.0553 15.9927Z" fill="#020305"/>
<path d="M8.78466 15.9977C8.53427 15.9977 8.29403 15.8983 8.11698 15.7212C7.93992 15.5442 7.84055 15.3041 7.84055 15.0537V2.47417L3.45769 4.66482V15.0537C3.45769 15.3042 3.35815 15.5445 3.18099 15.7216C3.00383 15.8988 2.76357 15.9983 2.51303 15.9983C2.26248 15.9983 2.02222 15.8988 1.84506 15.7216C1.6679 15.5445 1.56836 15.3042 1.56836 15.0537V4.08005C1.56843 3.90468 1.61733 3.73279 1.70962 3.58366C1.8019 3.43454 1.93399 3.31405 2.09092 3.23574L8.36186 0.0999199C8.50581 0.0278346 8.66575 -0.00623153 8.82658 0.00093673C8.98742 0.00810499 9.14382 0.0562805 9.28079 0.140886C9.41776 0.225492 9.53084 0.343711 9.60924 0.484318C9.68764 0.624926 9.72881 0.78325 9.72878 0.944234V15.0537C9.72908 15.1779 9.70484 15.3009 9.65753 15.4157C9.61021 15.5305 9.54074 15.6348 9.45304 15.7227C9.36534 15.8106 9.26115 15.8803 9.14645 15.9279C9.03176 15.9755 8.90884 16 8.78466 16V15.9977Z" fill="#020305"/>
<path d="M13.4868 15.9974C13.2364 15.9974 12.9962 15.8979 12.8191 15.7209C12.6421 15.5439 12.5427 15.3037 12.5427 15.0534V7.71983L8.25961 4.86507C8.05115 4.72621 7.90648 4.51024 7.85728 4.26465C7.80807 4.01907 7.85842 3.764 7.99729 3.55555C8.13616 3.34711 8.35214 3.20237 8.59774 3.15317C8.84334 3.10397 9.09847 3.15434 9.30693 3.29321L14.0103 6.42902C14.1397 6.51521 14.2458 6.63199 14.3191 6.76899C14.3925 6.906 14.4309 7.05898 14.4309 7.21438V15.0534C14.4309 15.3037 14.3314 15.5439 14.1544 15.7209C13.9773 15.8979 13.7372 15.9974 13.4868 15.9974Z" fill="#020305"/>
<path d="M5.64905 6.60163C5.52507 6.60163 5.40236 6.57722 5.28782 6.52978C5.17327 6.48234 5.06917 6.4128 4.98151 6.32514C4.89384 6.23748 4.82433 6.13341 4.77688 6.01887C4.72944 5.90434 4.70508 5.78158 4.70508 5.65761V5.64967C4.70508 5.39915 4.80448 5.15889 4.98164 4.98174C5.1588 4.8046 5.3992 4.70508 5.64975 4.70508C5.90029 4.70508 6.14055 4.8046 6.31771 4.98174C6.49487 5.15889 6.59441 5.39915 6.59441 5.64967V5.65761C6.59441 5.78168 6.56985 5.90452 6.52233 6.01913C6.47482 6.13374 6.40522 6.23786 6.31743 6.32554C6.22964 6.41321 6.12538 6.48274 6.01071 6.53011C5.89603 6.57749 5.77313 6.60178 5.64905 6.60163Z" fill="#020305"/>
<path d="M5.64905 8.9527C5.52507 8.9527 5.40236 8.92827 5.28782 8.88083C5.17327 8.83339 5.06917 8.76385 4.98151 8.67619C4.89384 8.58852 4.82433 8.48447 4.77688 8.36993C4.72944 8.2554 4.70508 8.13263 4.70508 8.00866V7.99733C4.70508 7.74681 4.80448 7.50655 4.98164 7.3294C5.1588 7.15225 5.3992 7.05273 5.64975 7.05273C5.90029 7.05273 6.14055 7.15225 6.31771 7.3294C6.49487 7.50655 6.59441 7.74681 6.59441 7.99733V8.00527C6.59486 8.12962 6.57062 8.25284 6.5233 8.36784C6.47598 8.48284 6.40651 8.58735 6.31868 8.67539C6.23085 8.76343 6.12643 8.83324 6.01154 8.88083C5.89664 8.92842 5.77342 8.95285 5.64905 8.9527Z" fill="#020305"/>
<path d="M5.64905 11.3048C5.52507 11.3048 5.40236 11.2803 5.28782 11.2329C5.17327 11.1855 5.06917 11.1159 4.98151 11.0283C4.89384 10.9406 4.82433 10.8365 4.77688 10.722C4.72944 10.6075 4.70508 10.4847 4.70508 10.3607V10.3528C4.70508 10.1023 4.80448 9.86201 4.98164 9.68487C5.1588 9.50772 5.3992 9.4082 5.64975 9.4082C5.90029 9.4082 6.14055 9.50772 6.31771 9.68487C6.49487 9.86201 6.59441 10.1023 6.59441 10.3528V10.3607C6.59441 10.4848 6.56985 10.6076 6.52233 10.7223C6.47482 10.8369 6.40522 10.941 6.31743 11.0287C6.22964 11.1163 6.12538 11.1859 6.01071 11.2332C5.89603 11.2806 5.77313 11.3049 5.64905 11.3048Z" fill="#020305"/>
<path d="M5.64905 13.6563C5.52507 13.6563 5.40236 13.6319 5.28782 13.5845C5.17327 13.537 5.06917 13.4675 4.98151 13.3798C4.89384 13.2922 4.82433 13.1881 4.77688 13.0736C4.72944 12.959 4.70508 12.8363 4.70508 12.7123V12.7044C4.70508 12.4538 4.80448 12.2136 4.98164 12.0364C5.1588 11.8593 5.3992 11.7598 5.64975 11.7598C5.90029 11.7598 6.14055 11.8593 6.31771 12.0364C6.49487 12.2136 6.59441 12.4538 6.59441 12.7044V12.7123C6.59441 12.8364 6.56985 12.9592 6.52233 13.0738C6.47482 13.1884 6.40522 13.2925 6.31743 13.3802C6.22964 13.4679 6.12538 13.5374 6.01071 13.5848C5.89603 13.6322 5.77313 13.6565 5.64905 13.6563Z" fill="#020305"/>
</svg>
