<svg width="17" height="17" viewBox="0 0 17 17" fill="none" xmlns="http://www.w3.org/2000/svg">
<path d="M15.75 8.25C15.75 6.76664 15.3101 5.3166 14.486 4.08323C13.6619 2.84986 12.4906 1.88856 11.1201 1.32091C9.74968 0.75325 8.24168 0.604725 6.78683 0.894114C5.33197 1.1835 3.9956 1.89781 2.9467 2.9467C1.89781 3.9956 1.1835 5.33197 0.894114 6.78683C0.604725 8.24168 0.75325 9.74968 1.32091 11.1201C1.88856 12.4906 2.84986 13.6619 4.08323 14.486C5.3166 15.3101 6.76664 15.75 8.25 15.75" stroke="black" stroke-width="1.5" stroke-linecap="round" stroke-linejoin="round"/>
<path d="M13.25 9.08313V14.9161" stroke="black" stroke-width="1.5" stroke-miterlimit="10" stroke-linecap="round"/>
<path d="M15.75 13.25L13.55 15.203C13.5113 15.2418 13.4653 15.2725 13.4147 15.2935C13.3641 15.3145 13.3098 15.3253 13.255 15.3253C13.2002 15.3253 13.1459 15.3145 13.0953 15.2935C13.0447 15.2725 12.9987 15.2418 12.96 15.203L10.75 13.25" stroke="black" stroke-width="1.5" stroke-miterlimit="10" stroke-linecap="round"/>
<path d="M8.25 4.08252V12.4155" stroke="black" stroke-width="1.5" stroke-miterlimit="10" stroke-linecap="round"/>
<path d="M10.0352 5.84066C8.99316 5.31566 5.86816 4.87066 5.86816 6.67366C5.86816 8.50666 10.8682 7.92366 10.8682 10.0067C10.8682 11.7707 7.05716 11.4647 5.86816 10.8397" stroke="black" stroke-width="1.5" stroke-miterlimit="10" stroke-linecap="round"/>
</svg>
