<svg width="16" height="14" viewBox="0 0 16 14" fill="none" xmlns="http://www.w3.org/2000/svg">
<path d="M8.75 1.3125H1.72266C1.50391 1.3125 1.28516 1.53125 1.28516 1.75V12.25C1.28516 12.4961 1.50391 12.6875 1.72266 12.6875H7.76562C8.09375 13.207 8.50391 13.6445 8.99609 14C8.91406 14 8.83203 14 8.75 14H1.75C0.765625 14 0 13.2344 0 12.25V1.75C0 0.792969 0.765625 0 1.75 0H8.75C9.70703 0 10.5 0.792969 10.5 1.75V5.44141C10.0078 5.57812 9.57031 5.76953 9.1875 6.04297V1.75C9.1875 1.53125 8.96875 1.3125 8.75 1.3125ZM2.59766 4.15625C2.59766 3.80078 2.89844 3.5 3.25391 3.5H7.19141C7.57422 3.5 7.84766 3.80078 7.84766 4.15625C7.84766 4.53906 7.57422 4.8125 7.19141 4.8125H3.25391C2.89844 4.8125 2.59766 4.53906 2.59766 4.15625ZM7.19141 6.125C7.57422 6.125 7.84766 6.42578 7.84766 6.78125C7.84766 7.16406 7.57422 7.4375 7.19141 7.4375H3.25391C2.89844 7.4375 2.59766 7.16406 2.59766 6.78125C2.59766 6.42578 2.89844 6.125 3.25391 6.125H7.19141ZM4.56641 8.75C4.94922 8.75 5.22266 9.05078 5.22266 9.40625C5.22266 9.78906 4.94922 10.0625 4.56641 10.0625H3.25391C2.89844 10.0625 2.59766 9.78906 2.59766 9.40625C2.59766 9.05078 2.89844 8.75 3.25391 8.75H4.56641ZM7.84766 10.0625C7.84766 7.90234 9.625 6.125 11.8125 6.125C13.9727 6.125 15.75 7.90234 15.75 10.0625C15.75 12.25 13.9727 14 11.8125 14C9.625 14 7.84766 12.25 7.84766 10.0625ZM11.8125 8.75C12.168 8.75 12.4688 8.47656 12.4688 8.09375C12.4688 7.73828 12.168 7.4375 11.8125 7.4375C11.4297 7.4375 11.1562 7.73828 11.1562 8.09375C11.1562 8.47656 11.4297 8.75 11.8125 8.75ZM11.375 10.5V11.8125C11.1289 11.8125 10.9375 12.0312 10.9375 12.25C10.9375 12.4961 11.1289 12.6875 11.375 12.6875H12.25C12.4688 12.6875 12.6875 12.4961 12.6875 12.25C12.6875 12.0312 12.4688 11.8125 12.25 11.8125V10.0625C12.25 9.84375 12.0312 9.625 11.8125 9.625H11.375C11.1289 9.625 10.9375 9.84375 10.9375 10.0625C10.9375 10.3086 11.1289 10.5 11.375 10.5Z" fill="black"/>
</svg>
