<svg width="17" height="18" viewBox="0 0 17 18" fill="none" xmlns="http://www.w3.org/2000/svg">
<path d="M11.4329 2.26758C13.2454 2.27758 14.2271 2.35841 14.8671 2.99841C15.5996 3.73091 15.5996 4.90924 15.5996 7.26591V12.2659C15.5996 14.6234 15.5996 15.8017 14.8671 16.5342C14.1354 17.2659 12.9563 17.2659 10.5996 17.2659H5.59961C3.24294 17.2659 2.06378 17.2659 1.33211 16.5342C0.599609 15.8009 0.599609 14.6234 0.599609 12.2659V7.26591C0.599609 4.90924 0.599609 3.73091 1.33211 2.99841C1.97211 2.35841 2.95378 2.27758 4.76628 2.26758" stroke="black" stroke-width="1.2"/>
<path d="M6.84928 10.6003H12.266M3.93262 10.6003H4.34928M3.93262 7.68359H4.34928M3.93262 13.5169H4.34928M6.84928 7.68359H12.266M6.84928 13.5169H12.266" stroke="black" stroke-width="1.2" stroke-linecap="round"/>
<path d="M4.7666 1.84961C4.7666 1.51809 4.8983 1.20015 5.13272 0.965726C5.36714 0.731305 5.68508 0.599609 6.0166 0.599609H10.1833C10.5148 0.599609 10.8327 0.731305 11.0672 0.965726C11.3016 1.20015 11.4333 1.51809 11.4333 1.84961V2.68294C11.4333 3.01446 11.3016 3.33241 11.0672 3.56683C10.8327 3.80125 10.5148 3.93294 10.1833 3.93294H6.0166C5.68508 3.93294 5.36714 3.80125 5.13272 3.56683C4.8983 3.33241 4.7666 3.01446 4.7666 2.68294V1.84961Z" stroke="black" stroke-width="1.2"/>
</svg>
