<svg width="18" height="14" viewBox="0 0 18 14" fill="none" xmlns="http://www.w3.org/2000/svg">
<path d="M8.72266 8.75C7.16406 8.75 5.87891 7.49219 5.90625 5.90625C5.90625 4.34766 7.16406 3.0625 8.72266 3.0625C10.2812 3.0625 11.5664 4.34766 11.5664 5.90625C11.5664 7.49219 10.3086 8.75 8.72266 8.75ZM8.72266 4.375C7.90234 4.375 7.19141 5.08594 7.19141 5.90625C7.19141 6.75391 7.90234 7.4375 8.72266 7.4375C9.57031 7.4375 10.2539 6.75391 10.2539 5.90625C10.2539 5.08594 9.57031 4.375 8.72266 4.375ZM14 4.375C12.7695 4.375 11.8125 3.41797 11.8125 2.1875C11.8125 0.984375 12.7695 0 14 0C15.2031 0 16.1875 0.984375 16.1875 2.1875C16.1875 3.41797 15.2031 4.375 14 4.375ZM10.0898 9.625C12.25 9.625 14 11.2656 14 13.2891C14 13.6992 13.6445 14 13.207 14H4.26562C3.82812 14 3.5 13.6992 3.5 13.2891C3.5 11.2656 5.22266 9.625 7.38281 9.625H10.0898ZM4.86719 12.6875H12.6055C12.3047 11.7031 11.293 10.9375 10.0898 10.9375H7.35547C6.15234 10.9375 5.14062 11.7031 4.86719 12.6875ZM15.0664 5.25C16.4062 5.25 17.5 6.39844 17.5 7.82031C17.5 8.09375 17.2812 8.3125 17.0078 8.3125H11.5391C12.1133 7.68359 12.4414 6.83594 12.4414 5.90625C12.4414 5.76953 12.4141 5.63281 12.4141 5.49609C12.7148 5.35938 13.043 5.25 13.3984 5.25H15.0664ZM5.00391 5.90625C5.00391 6.83594 5.35938 7.68359 5.93359 8.3125H0.464844C0.191406 8.3125 0 8.09375 0 7.82031C0 6.39844 1.06641 5.25 2.40625 5.25H4.07422C4.42969 5.25 4.75781 5.33203 5.05859 5.49609C5.03125 5.63281 5.00391 5.76953 5.00391 5.90625ZM3.5 4.375C2.26953 4.375 1.3125 3.41797 1.3125 2.1875C1.3125 0.984375 2.26953 0 3.5 0C4.70312 0 5.6875 0.984375 5.6875 2.1875C5.6875 3.41797 4.70312 4.375 3.5 4.375Z" fill="black"/>
</svg>
