<svg width="16" height="16" viewBox="0 0 16 16" fill="none" xmlns="http://www.w3.org/2000/svg">
<path d="M8.75214 16H7.24017C6.88373 16 6.54189 15.8584 6.28984 15.6064C6.0378 15.3543 5.8962 15.0125 5.8962 14.656V13.7844C5.89199 13.733 5.87324 13.6838 5.84213 13.6427C5.81102 13.6015 5.76884 13.5701 5.72053 13.552C5.67153 13.5207 5.61456 13.504 5.55637 13.504C5.49818 13.504 5.44121 13.5207 5.39221 13.552L4.7999 14.1914C4.67571 14.3164 4.52801 14.4156 4.36531 14.4833C4.20262 14.551 4.02814 14.5859 3.85192 14.5859C3.6757 14.5859 3.50123 14.551 3.33853 14.4833C3.17584 14.4156 3.02814 14.3164 2.90394 14.1914L1.80764 13.1201C1.68067 12.9961 1.57983 12.848 1.51107 12.6844C1.44231 12.5209 1.40704 12.3452 1.40733 12.1678C1.40798 11.805 1.55185 11.4573 1.80764 11.2001L2.39995 10.6078C2.4285 10.5638 2.4437 10.5124 2.4437 10.46C2.4437 10.4075 2.4285 10.3561 2.39995 10.3121C2.35195 10.1921 2.27227 10.1038 2.15996 10.1038H1.34397C0.986825 10.1018 0.644996 9.95847 0.393171 9.7052C0.141345 9.45194 -5.76488e-06 9.1093 1.76341e-10 8.75214V7.24017C1.7634e-10 6.88373 0.141597 6.54189 0.39364 6.28984C0.645684 6.0378 0.987529 5.8962 1.34397 5.8962H2.21564C2.26704 5.89199 2.31619 5.87324 2.35732 5.84213C2.39846 5.81102 2.4299 5.76884 2.44795 5.72053C2.47934 5.67153 2.49602 5.61456 2.49602 5.55637C2.49602 5.49818 2.47934 5.44121 2.44795 5.39221L1.80764 4.7999C1.68263 4.67571 1.58342 4.52801 1.51572 4.36531C1.44802 4.20262 1.41316 4.02814 1.41316 3.85192C1.41316 3.6757 1.44802 3.50123 1.51572 3.33853C1.58342 3.17584 1.68263 3.02814 1.80764 2.90394L2.87994 1.80764C3.00259 1.68136 3.14927 1.58089 3.31133 1.51214C3.47339 1.4434 3.64756 1.40776 3.8236 1.40733C4.00467 1.40652 4.18412 1.44146 4.35166 1.51016C4.5192 1.57885 4.67152 1.67995 4.7999 1.80764L5.39221 2.39995C5.43623 2.4285 5.48758 2.4437 5.54005 2.4437C5.59252 2.4437 5.64387 2.4285 5.68789 2.39995C5.80788 2.35195 5.8962 2.27227 5.8962 2.15996V1.34397C5.89823 0.986825 6.04153 0.644996 6.2948 0.393171C6.54806 0.141345 6.8907 -5.76488e-06 7.24786 1.76341e-10H8.80014C9.15659 1.76341e-10 9.49843 0.141597 9.75048 0.39364C10.0025 0.645684 10.1441 0.987529 10.1441 1.34397V2.21564C10.1483 2.26704 10.1671 2.31619 10.1982 2.35732C10.2293 2.39846 10.2715 2.4299 10.3198 2.44795C10.3688 2.47934 10.4258 2.49602 10.4839 2.49602C10.5421 2.49602 10.5991 2.47934 10.6481 2.44795L11.2001 1.80764C11.3243 1.68263 11.472 1.58342 11.6347 1.51572C11.7974 1.44802 11.9719 1.41316 12.1481 1.41316C12.3243 1.41316 12.4988 1.44802 12.6615 1.51572C12.8242 1.58342 12.9719 1.68263 13.0961 1.80764L14.1914 2.87994C14.318 3.00417 14.4186 3.15235 14.4873 3.31585C14.556 3.47934 14.5915 3.65489 14.5917 3.83224C14.5955 4.01245 14.5619 4.19148 14.493 4.35804C14.4241 4.52459 14.3214 4.67505 14.1914 4.7999L13.5991 5.39221C13.5705 5.43623 13.5553 5.48758 13.5553 5.54005C13.5553 5.59252 13.5705 5.64387 13.5991 5.68789C13.6471 5.80788 13.7268 5.8962 13.8391 5.8962H14.7107C15.0583 5.91226 15.3863 6.06173 15.6264 6.31349C15.8666 6.56526 16.0004 6.89993 16 7.24786V8.80014C16 9.15659 15.8584 9.49843 15.6064 9.75048C15.3543 10.0025 15.0125 10.1441 14.656 10.1441H13.7844C13.7343 10.1538 13.6872 10.175 13.6467 10.2059C13.6062 10.2369 13.5734 10.2768 13.5509 10.3226C13.5284 10.3683 13.5168 10.4186 13.517 10.4696C13.5172 10.5206 13.5292 10.5709 13.552 10.6164L14.1684 11.2327C14.2934 11.3569 14.3926 11.5046 14.4603 11.6673C14.528 11.83 14.5628 12.0045 14.5628 12.1807C14.5628 12.3569 14.528 12.5314 14.4603 12.6941C14.3926 12.8568 14.2934 13.0045 14.1684 13.1287L13.1201 14.1924C12.9974 14.3186 12.8507 14.4191 12.6887 14.4879C12.5266 14.5566 12.3524 14.5922 12.1764 14.5927C11.819 14.588 11.4775 14.4444 11.2241 14.1924L10.6078 13.6C10.5638 13.5715 10.5124 13.5563 10.46 13.5563C10.4075 13.5563 10.3561 13.5715 10.3121 13.6C10.1921 13.648 10.1038 13.7277 10.1038 13.84V14.7117C10.0875 15.0591 9.93793 15.3868 9.68619 15.6268C9.43445 15.8667 9.09991 16.0004 8.75214 16ZM7.49553 14.3997H8.50351V13.7834C8.50705 13.4145 8.61995 13.055 8.82792 12.7503C9.03588 12.4456 9.32957 12.2095 9.67181 12.0718C10.0155 11.9217 10.396 11.8773 10.7649 11.9444C11.1339 12.0114 11.4745 12.1867 11.7434 12.4481L12.1754 12.8801L12.8791 12.1764L12.4471 11.7367C12.1908 11.4715 12.0176 11.1372 11.9487 10.775C11.8798 10.4127 11.9182 10.0381 12.0592 9.69738C12.2003 9.35662 12.4377 9.06447 12.7425 8.85681C13.0473 8.64915 13.406 8.53503 13.7748 8.52847H14.3997V7.49553H13.7834C13.4145 7.49199 13.055 7.37909 12.7503 7.17112C12.4456 6.96316 12.2095 6.66947 12.0718 6.32723C11.9217 5.98359 11.8773 5.60304 11.9444 5.2341C12.0114 4.86515 12.1867 4.52451 12.4481 4.25559L12.8801 3.8236L12.1764 3.11994L11.7367 3.55193C11.4676 3.79744 11.134 3.96098 10.7751 4.02332C10.4163 4.08566 10.047 4.0442 9.71091 3.90382C9.37478 3.76344 9.08575 3.52999 8.8778 3.23091C8.66986 2.93184 8.55166 2.5796 8.53711 2.21564V1.60029H7.49553V2.2166C7.49207 2.58537 7.37931 2.94483 7.17152 3.24951C6.96373 3.55418 6.67025 3.79039 6.32819 3.92824C5.98443 4.07851 5.60369 4.12297 5.23454 4.05595C4.8654 3.98892 4.52459 3.81346 4.25559 3.55193L3.8236 3.11994L3.11994 3.8236L3.55193 4.26327C3.79773 4.53234 3.96153 4.86604 4.02404 5.22507C4.08655 5.58411 4.04516 5.95353 3.90475 6.28983C3.76434 6.62613 3.53075 6.91531 3.2315 7.12331C2.93224 7.3313 2.57979 7.44945 2.21564 7.46385H1.60029V8.47183H2.2166C2.58548 8.47537 2.94502 8.58827 3.24971 8.79624C3.5544 9.0042 3.79054 9.29789 3.92824 9.64013C4.0783 9.98377 4.12265 10.3643 4.05563 10.7333C3.98861 11.1022 3.81326 11.4428 3.55193 11.7118L3.11994 12.1438L3.8236 12.8474L4.26327 12.4154C4.53237 12.1699 4.86598 12.0064 5.22486 11.944C5.58375 11.8817 5.95297 11.9232 6.28909 12.0635C6.62522 12.2039 6.91425 12.4374 7.1222 12.7364C7.33014 13.0355 7.44834 13.3878 7.46289 13.7517L7.49553 14.3997Z" fill="#1C0F0F"/>
<path d="M8.04148 10.8662C7.48764 10.8662 6.94623 10.7019 6.48573 10.3942C6.02523 10.0865 5.66631 9.64919 5.45437 9.13751C5.24242 8.62582 5.18697 8.06278 5.29502 7.51959C5.40307 6.97639 5.66977 6.47743 6.06139 6.08581C6.45301 5.69418 6.95197 5.42748 7.49517 5.31943C8.03837 5.21138 8.60141 5.26684 9.11309 5.47878C9.62477 5.69073 10.0621 6.04965 10.3698 6.51015C10.6775 6.97065 10.8417 7.51205 10.8417 8.06589C10.8417 8.80857 10.5467 9.52082 10.0216 10.046C9.49641 10.5711 8.78415 10.8662 8.04148 10.8662ZM8.04148 6.86591C7.80414 6.86591 7.57214 6.93629 7.3748 7.06815C7.17747 7.2 7.02367 7.38741 6.93284 7.60668C6.84202 7.82595 6.81826 8.06722 6.86456 8.29999C6.91086 8.53277 7.02515 8.74658 7.19296 8.9144C7.36078 9.08222 7.5746 9.19651 7.80737 9.24281C8.04014 9.28911 8.28142 9.26535 8.50069 9.17452C8.71995 9.0837 8.90736 8.9299 9.03922 8.73256C9.17107 8.53523 9.24145 8.30322 9.24145 8.06589C9.2412 7.7478 9.11466 7.44283 8.88965 7.218C8.66464 6.99317 8.35956 6.86591 8.04148 6.86591Z" fill="#1C0F0F"/>
</svg>
