<svg width="14" height="16" viewBox="0 0 14 16" fill="none" xmlns="http://www.w3.org/2000/svg">
<path d="M2.5 3.25C2.91563 3.25 3.25 2.91563 3.25 2.5C3.25 2.08437 2.91563 1.75 2.5 1.75C2.08437 1.75 1.75 2.08437 1.75 2.5C1.75 2.91563 2.08437 3.25 2.5 3.25ZM5 2.5C5 3.525 4.38438 4.40625 3.5 4.79063V7H9C9.82812 7 10.5 6.32812 10.5 5.5V4.79063C9.61563 4.40625 9 3.525 9 2.5C9 1.11875 10.1187 0 11.5 0C12.8813 0 14 1.11875 14 2.5C14 3.525 13.3844 4.40625 12.5 4.79063V5.5C12.5 7.43437 10.9344 9 9 9H3.5V11.2094C4.38438 11.5938 5 12.475 5 13.5C5 14.8813 3.88125 16 2.5 16C1.11875 16 0 14.8813 0 13.5C0 12.475 0.615625 11.5938 1.5 11.2094V4.79375C0.615625 4.40625 0 3.525 0 2.5C0 1.11875 1.11875 0 2.5 0C3.88125 0 5 1.11875 5 2.5ZM12.25 2.5C12.25 2.08437 11.9156 1.75 11.5 1.75C11.0844 1.75 10.75 2.08437 10.75 2.5C10.75 2.91563 11.0844 3.25 11.5 3.25C11.9156 3.25 12.25 2.91563 12.25 2.5ZM2.5 14.25C2.91563 14.25 3.25 13.9156 3.25 13.5C3.25 13.0844 2.91563 12.75 2.5 12.75C2.08437 12.75 1.75 13.0844 1.75 13.5C1.75 13.9156 2.08437 14.25 2.5 14.25Z" fill="black"/>
</svg>
