<svg width="14" height="14" viewBox="0 0 14 14" fill="none" xmlns="http://www.w3.org/2000/svg">
<path d="M6.31641 0.164062C6.53516 0.0546875 6.75391 0 7 0C7.21875 0 7.4375 0.0546875 7.65625 0.164062L13.3984 2.59766C13.7539 2.76172 14 3.11719 14 3.5C14 3.91016 13.7539 4.26562 13.3984 4.42969L7.65625 6.86328C7.4375 6.97266 7.21875 7 7 7C6.75391 7 6.53516 6.97266 6.31641 6.86328L0.574219 4.42969C0.21875 4.26562 0 3.91016 0 3.5C0 3.11719 0.21875 2.76172 0.574219 2.59766L6.31641 0.164062ZM7 1.3125C6.91797 1.3125 6.86328 1.33984 6.83594 1.36719L1.80469 3.5L6.83594 5.66016C6.86328 5.6875 6.91797 5.6875 7 5.6875C7.05469 5.6875 7.10938 5.6875 7.13672 5.66016L12.168 3.5L7.13672 1.36719C7.10938 1.33984 7.05469 1.3125 7 1.3125ZM6.83594 9.16016C6.86328 9.1875 6.91797 9.1875 7 9.1875C7.05469 9.1875 7.10938 9.1875 7.13672 9.16016L12.3594 6.94531C12.2227 6.75391 12.1953 6.50781 12.3047 6.28906C12.4688 5.96094 12.8516 5.82422 13.1797 5.98828L13.4258 6.125C13.7812 6.28906 14 6.61719 14 7C14 7.41016 13.7539 7.76562 13.3711 7.92969L7.65625 10.3633C7.4375 10.4727 7.21875 10.5 7 10.5C6.75391 10.5 6.53516 10.4727 6.31641 10.3633L0.601562 7.92969C0.21875 7.76562 0 7.41016 0 6.97266C0 6.64453 0.136719 6.34375 0.410156 6.15234L0.710938 5.93359C0.984375 5.74219 1.39453 5.79688 1.61328 6.09766C1.80469 6.34375 1.77734 6.69922 1.55859 6.91797L6.83594 9.16016ZM1.61328 9.59766C1.80469 9.84375 1.77734 10.1992 1.55859 10.418L6.83594 12.6602C6.86328 12.6875 6.91797 12.6875 7 12.6875C7.05469 12.6875 7.10938 12.6875 7.13672 12.6602L12.3594 10.4453C12.2227 10.2539 12.1953 10.0078 12.3047 9.78906C12.4688 9.46094 12.8516 9.32422 13.1797 9.48828L13.4258 9.625C13.7812 9.78906 14 10.1172 14 10.5C14 10.9102 13.7539 11.2656 13.3711 11.4297L7.65625 13.8633C7.4375 13.9727 7.21875 14 7 14C6.75391 14 6.53516 13.9727 6.31641 13.8633L0.601562 11.4297C0.21875 11.2656 0 10.9102 0 10.4727C0 10.1445 0.136719 9.84375 0.410156 9.65234L0.710938 9.43359C0.984375 9.24219 1.39453 9.29688 1.61328 9.59766Z" fill="black"/>
</svg>
