<svg width="16" height="14" viewBox="0 0 16 14" fill="none" xmlns="http://www.w3.org/2000/svg">
<path d="M11.7646 0.514648C11.8141 0.528621 11.8575 0.551689 11.8916 0.580078L11.8965 0.583984L15.3164 3.35449V3.35547C15.3742 3.40474 15.4184 3.46251 15.4473 3.52344C15.4759 3.58402 15.4902 3.64774 15.4902 3.71094C15.4902 3.77431 15.476 3.83866 15.4473 3.89941C15.4188 3.95954 15.375 4.01562 15.3184 4.06445L11.7783 6.83301L11.7744 6.83691C11.7183 6.88178 11.6413 6.91007 11.5566 6.91211C11.4927 6.91012 11.4313 6.8945 11.3789 6.86719C11.3253 6.83917 11.2838 6.80158 11.2559 6.76074L11.25 6.75098L11.2051 6.6748C11.1685 6.59638 11.156 6.51267 11.167 6.43164C11.1818 6.32375 11.2381 6.215 11.3379 6.13086L12.751 5.02734L13.8936 4.13379H0.913086C0.787231 4.12512 0.675608 4.07127 0.600586 3.99316C0.526759 3.91626 0.495871 3.82349 0.500977 3.73633L0.501953 3.70605L0.500977 3.67676C0.495793 3.58955 0.52675 3.49689 0.600586 3.41992C0.674617 3.3428 0.785725 3.28902 0.913086 3.28027H13.9346L12.8262 2.39062L11.4375 1.27441C11.3431 1.18914 11.2901 1.08224 11.2773 0.975586C11.2644 0.866401 11.2926 0.752293 11.3652 0.65332L11.3711 0.646484L11.376 0.637695C11.3977 0.605727 11.4293 0.576035 11.4697 0.551758C11.5103 0.527373 11.5582 0.509707 11.6104 0.50293C11.6624 0.49617 11.7153 0.500706 11.7646 0.514648Z" fill="black" stroke="black"/>
<path d="M4.50977 7.09326C4.56164 7.101 4.60954 7.11911 4.64941 7.14404C4.68916 7.16891 4.71929 7.19979 4.74023 7.23193L4.75195 7.24951C4.82242 7.34836 4.849 7.46165 4.83398 7.56982C4.81885 7.67836 4.76131 7.78641 4.66016 7.87061L3.25 8.97314L2.10645 9.86768H15.0723C15.1987 9.88455 15.308 9.94027 15.3848 10.02C15.463 10.1013 15.4999 10.199 15.5 10.2935C15.5 10.3881 15.4631 10.4865 15.3848 10.5679C15.3086 10.6471 15.1984 10.7032 15.0713 10.7202H2.06445L3.17285 11.6099L4.55664 12.7222C4.65311 12.8074 4.70723 12.9147 4.71973 13.022C4.72909 13.1028 4.71569 13.1863 4.67773 13.2642L4.63086 13.3403L4.62305 13.3511C4.59507 13.3909 4.55467 13.4283 4.50195 13.4556C4.45061 13.4821 4.39061 13.4963 4.32812 13.4985C4.24231 13.4956 4.16527 13.4656 4.10938 13.4194L4.10547 13.4165L0.681641 10.6411C0.625794 10.5926 0.582888 10.5366 0.554688 10.4771C0.526033 10.4164 0.51174 10.3528 0.511719 10.2896C0.511719 10.2261 0.525893 10.1619 0.554688 10.1011C0.582582 10.0423 0.623817 9.98609 0.678711 9.93799L4.22363 7.16748L4.22656 7.16553C4.26169 7.13762 4.30556 7.11508 4.35547 7.10205C4.40521 7.08909 4.45804 7.0856 4.50977 7.09326Z" fill="black" stroke="black"/>
</svg>
