<svg width="19" height="19" viewBox="0 0 19 19" fill="none" xmlns="http://www.w3.org/2000/svg">
<path d="M15.0822 18.9999C14.2043 19.0027 13.3601 18.6619 12.7303 18.0503L12.7212 18.0412L12.6767 17.9967L12.671 17.991L9.95997 15.2355C9.87254 15.1466 9.80348 15.0413 9.75674 14.9257C9.70999 14.8101 9.68648 14.6864 9.68754 14.5617C9.68859 14.4369 9.71421 14.3137 9.76291 14.1989C9.81161 14.084 9.88244 13.98 9.97137 13.8925C10.0603 13.8051 10.1656 13.736 10.2812 13.6893C10.3968 13.6425 10.5205 13.619 10.6452 13.6201C10.7699 13.6211 10.8932 13.6468 11.008 13.6955C11.1228 13.7442 11.2269 13.815 11.3143 13.9039L14.0584 16.6925C14.3384 16.9615 14.7133 17.1092 15.1016 17.1035C15.4899 17.0977 15.8602 16.939 16.1322 16.6617C16.4045 16.3823 16.5549 16.0064 16.5505 15.6163C16.543 15.2291 16.3832 14.8605 16.1059 14.5902L16.0911 14.5754L13.1908 11.6307C13.0141 11.4512 12.9159 11.2089 12.9178 10.957C12.9198 10.7052 13.0217 10.4644 13.2011 10.2877C13.3806 10.111 13.6229 10.0128 13.8747 10.0147C14.1266 10.0166 14.3673 10.1185 14.5441 10.2979L17.4364 13.2359C18.0713 13.86 18.435 14.709 18.4487 15.5992C18.4573 16.4924 18.1127 17.3529 17.4899 17.9933C17.176 18.3131 16.8013 18.567 16.3878 18.7399C15.9743 18.9127 15.5304 19.0012 15.0822 18.9999Z" fill="black"/>
<path d="M5.11936 8.26543C4.87085 8.26544 4.63223 8.16803 4.45472 7.9941L0.854471 4.47933C0.764642 4.39131 0.693193 4.28632 0.644267 4.17046C0.595341 4.05461 0.569912 3.93018 0.569461 3.80442C0.568715 3.67875 0.592921 3.55419 0.64067 3.43794C0.68842 3.3217 0.758769 3.21609 0.847635 3.12723L2.5577 1.41715C2.73465 1.2399 2.97446 1.13972 3.22492 1.13844C3.47538 1.13716 3.7162 1.23488 3.89496 1.41031L7.57387 5.00717C7.66303 5.09438 7.73413 5.19829 7.78313 5.31298C7.83213 5.42767 7.85805 5.55088 7.85943 5.67559C7.8608 5.8003 7.8376 5.92406 7.79115 6.0398C7.7447 6.15554 7.6759 6.261 7.58869 6.35015C7.50148 6.43931 7.39757 6.51042 7.28288 6.55941C7.1682 6.60841 7.04498 6.63434 6.92028 6.63571C6.79557 6.63709 6.67181 6.61389 6.55607 6.56743C6.44033 6.52098 6.33487 6.45218 6.24572 6.36497L3.2383 3.42022L2.87234 3.78618L5.78401 6.62946C5.87309 6.71704 5.94401 6.82133 5.99272 6.93636C6.04144 7.05139 6.06697 7.1749 6.06788 7.29981C6.06892 7.42478 6.04529 7.54872 5.99834 7.66454C5.95139 7.78035 5.88204 7.88576 5.79427 7.97472C5.70672 8.06558 5.60196 8.13809 5.48608 8.188C5.3702 8.23792 5.24553 8.26424 5.11936 8.26543Z" fill="black"/>
<path d="M14.3446 0C14.8659 0.00010057 15.3835 0.0879724 15.8756 0.259931C16.0277 0.313579 16.1635 0.405046 16.2704 0.525714C16.3773 0.646382 16.4518 0.79228 16.4867 0.949662C16.5226 1.10641 16.5181 1.26971 16.4736 1.42425C16.4292 1.57878 16.3462 1.7195 16.2325 1.8332L14.6615 3.40191L15.0035 4.03692L15.5895 4.34131L17.1684 2.76462C17.2818 2.65146 17.4219 2.56881 17.5758 2.52436C17.7297 2.47991 17.8923 2.47511 18.0486 2.51039C18.205 2.5463 18.3498 2.62129 18.4694 2.72835C18.5891 2.83542 18.6796 2.97105 18.7326 3.1226C19.0604 4.04267 19.0875 5.04307 18.8101 5.97956C18.5245 6.95135 17.9267 7.80198 17.1092 8.39989C16.3095 8.98519 15.3447 9.30173 14.3537 9.30395C14.112 9.30382 13.8707 9.28476 13.632 9.24695L5.36675 18.3001L5.34509 18.3229L5.30747 18.3605L5.29948 18.3685C4.90599 18.761 4.37321 18.9819 3.81743 18.983C3.26166 18.9819 2.72888 18.761 2.33538 18.3685L0.610501 16.6447L0.602521 16.6356L0.564899 16.598L0.542102 16.574C0.170909 16.1649 -0.0231986 15.6255 0.00222397 15.0737C0.0276465 14.5219 0.27053 14.0025 0.677766 13.6293L9.74336 5.37192C9.62446 4.61618 9.69577 3.84272 9.95085 3.12146C10.27 2.21033 10.864 1.42072 11.651 0.861601C12.438 0.302485 13.3792 0.00143483 14.3446 0ZM15.7696 6.4504C15.6172 6.45033 15.4671 6.41357 15.3318 6.34324L13.8703 5.58625C13.7015 5.49867 13.5629 5.36245 13.4724 5.19521L12.6539 3.6778C12.5564 3.49777 12.5198 3.29107 12.5494 3.0885C12.5789 2.88594 12.6732 2.69836 12.8181 2.55371L13.2433 2.12847C12.8953 2.27983 12.5823 2.50145 12.3239 2.77943C12.0655 3.05742 11.8674 3.38578 11.7419 3.74392C11.5507 4.28601 11.5363 4.87474 11.7008 5.4255C11.7516 5.59671 11.7531 5.77876 11.7051 5.95077C11.6571 6.12278 11.5616 6.27778 11.4295 6.39796L1.95803 15.0247C1.923 15.0577 1.90177 15.1027 1.8986 15.1508C1.89543 15.1988 1.91055 15.2462 1.94093 15.2835L1.95689 15.3006L3.68291 17.0255C3.70061 17.0435 3.72172 17.0579 3.74501 17.0676C3.7683 17.0774 3.79331 17.0825 3.81857 17.0825C3.86809 17.0822 3.91553 17.0625 3.95082 17.0278L3.97134 17.0061L12.5935 7.55739C12.7138 7.42551 12.8688 7.3302 13.0408 7.28241C13.2128 7.23462 13.3948 7.23628 13.5659 7.2872C13.8201 7.36269 14.0839 7.40109 14.3491 7.40121C14.8851 7.3988 15.4089 7.24076 15.8568 6.94629C16.3047 6.65182 16.6574 6.23359 16.872 5.74243L16.44 6.17451C16.2625 6.35317 16.0214 6.45405 15.7696 6.45496V6.4504Z" fill="black"/>
</svg>
