<svg width="16" height="15" viewBox="0 0 16 15" fill="none" xmlns="http://www.w3.org/2000/svg">
<path d="M4.23535 0.514648C4.18594 0.528621 4.14251 0.551689 4.1084 0.580078L4.10352 0.583984L0.683594 3.35449V3.35547C0.625771 3.40474 0.581598 3.46251 0.552734 3.52344C0.524072 3.58402 0.509829 3.64774 0.509766 3.71094C0.509766 3.77431 0.523975 3.83866 0.552734 3.89941C0.581217 3.95954 0.624951 4.01562 0.681641 4.06445L4.22168 6.83301L4.22559 6.83691C4.28172 6.88178 4.35867 6.91007 4.44336 6.91211C4.50734 6.91012 4.56869 6.8945 4.62109 6.86719C4.67472 6.83917 4.71616 6.80158 4.74414 6.76074L4.75 6.75098L4.79492 6.6748C4.83151 6.59638 4.844 6.51267 4.83301 6.43164C4.81824 6.32375 4.76185 6.215 4.66211 6.13086L3.24902 5.02734L2.10645 4.13379H15.0869C15.2128 4.12512 15.3244 4.07127 15.3994 3.99316C15.4732 3.91626 15.5041 3.82349 15.499 3.73633L15.498 3.70605L15.499 3.67676C15.5042 3.58955 15.4732 3.49689 15.3994 3.41992C15.3254 3.3428 15.2143 3.28902 15.0869 3.28027H2.06543L3.17383 2.39062L4.5625 1.27441C4.65694 1.18914 4.70988 1.08224 4.72266 0.975586C4.73564 0.866401 4.70742 0.752293 4.63477 0.65332L4.62891 0.646484L4.62402 0.637695C4.60233 0.605727 4.57071 0.576035 4.53027 0.551758C4.48966 0.527373 4.44179 0.509707 4.38965 0.50293C4.33756 0.49617 4.28473 0.500706 4.23535 0.514648Z" fill="black" stroke="black"/>
<path d="M11.502 7.91675C11.4501 7.92449 11.4022 7.94259 11.3623 7.96753C11.3226 7.9924 11.2924 8.02327 11.2715 8.05542L11.2598 8.073C11.1893 8.17185 11.1627 8.28513 11.1777 8.39331C11.1929 8.50185 11.2504 8.6099 11.3516 8.69409L12.7617 9.79663L13.9053 10.6912H0.939453C0.813061 10.708 0.703685 10.7638 0.626953 10.8435C0.548764 10.9248 0.511823 11.0225 0.511719 11.1169C0.511719 11.2115 0.54862 11.3099 0.626953 11.3914C0.703157 11.4705 0.813342 11.5267 0.94043 11.5437H13.9473L12.8389 12.4333L11.4551 13.5457C11.3586 13.6309 11.3045 13.7382 11.292 13.8455C11.2826 13.9263 11.296 14.0098 11.334 14.0876L11.3809 14.1638L11.3887 14.1746C11.4166 14.2144 11.457 14.2518 11.5098 14.2791C11.5611 14.3056 11.6211 14.3198 11.6836 14.322C11.7694 14.3191 11.8465 14.2891 11.9023 14.2429L11.9062 14.24L15.3301 11.4646C15.3859 11.4161 15.4288 11.3601 15.457 11.3005C15.4857 11.2399 15.5 11.1763 15.5 11.113C15.5 11.0496 15.4858 10.9853 15.457 10.9246C15.4291 10.8657 15.3879 10.8096 15.333 10.7615L11.7881 7.99097L11.7852 7.98901C11.75 7.9611 11.7062 7.93856 11.6562 7.92554C11.6065 7.91258 11.5537 7.90909 11.502 7.91675Z" fill="black" stroke="black"/>
</svg>
