<svg width="14" height="13" viewBox="0 0 14 13" fill="none" xmlns="http://www.w3.org/2000/svg">
<path d="M4.8125 0C5.52344 0 6.125 0.601562 6.125 1.3125V4.375C6.125 5.11328 5.52344 5.6875 4.8125 5.6875H1.3125C0.574219 5.6875 0 5.11328 0 4.375V1.3125C0 0.601562 0.574219 0 1.3125 0H4.8125ZM4.8125 1.3125H1.3125V4.375H4.8125V1.3125ZM4.8125 6.5625C5.52344 6.5625 6.125 7.16406 6.125 7.875V10.9375C6.125 11.6758 5.52344 12.25 4.8125 12.25H1.3125C0.574219 12.25 0 11.6758 0 10.9375V7.875C0 7.16406 0.574219 6.5625 1.3125 6.5625H4.8125ZM4.8125 7.875H1.3125V10.9375H4.8125V7.875ZM7 1.3125C7 0.601562 7.57422 0 8.3125 0H12.6875C13.3984 0 14 0.601562 14 1.3125V2.1875C14 2.92578 13.3984 3.5 12.6875 3.5H8.3125C7.57422 3.5 7 2.92578 7 2.1875V1.3125ZM8.3125 2.1875H12.6875V1.3125H8.3125V2.1875ZM12.6875 4.375C13.3984 4.375 14 4.97656 14 5.6875V6.5625C14 7.30078 13.3984 7.875 12.6875 7.875H8.3125C7.57422 7.875 7 7.30078 7 6.5625V5.6875C7 4.97656 7.57422 4.375 8.3125 4.375H12.6875ZM12.6875 5.6875H8.3125V6.5625H12.6875V5.6875ZM7 10.0625C7 9.35156 7.57422 8.75 8.3125 8.75H12.6875C13.3984 8.75 14 9.35156 14 10.0625V10.9375C14 11.6758 13.3984 12.25 12.6875 12.25H8.3125C7.57422 12.25 7 11.6758 7 10.9375V10.0625ZM8.3125 10.9375H12.6875V10.0625H8.3125V10.9375Z" fill="black"/>
</svg>
