<svg width="16" height="15" viewBox="0 0 16 15" fill="none" xmlns="http://www.w3.org/2000/svg">
<path d="M4.23535 0.514648C4.18594 0.528621 4.14251 0.551689 4.1084 0.580078L4.10352 0.583984L0.683594 3.35449V3.35547C0.625771 3.40474 0.581598 3.46251 0.552734 3.52344C0.524072 3.58402 0.509829 3.64774 0.509766 3.71094C0.509766 3.77431 0.523975 3.83866 0.552734 3.89941C0.581217 3.95954 0.624951 4.01562 0.681641 4.06445L4.22168 6.83301L4.22559 6.83691C4.28172 6.88178 4.35867 6.91007 4.44336 6.91211C4.50734 6.91012 4.56869 6.8945 4.62109 6.86719C4.67472 6.83917 4.71616 6.80158 4.74414 6.76074L4.75 6.75098L4.79492 6.6748C4.83151 6.59638 4.844 6.51267 4.83301 6.43164C4.81824 6.32375 4.76185 6.215 4.66211 6.13086L3.24902 5.02734L2.10645 4.13379H15.0869C15.2128 4.12512 15.3244 4.07127 15.3994 3.99316C15.4732 3.91626 15.5041 3.82349 15.499 3.73633L15.498 3.70605L15.499 3.67676C15.5042 3.58955 15.4732 3.49689 15.3994 3.41992C15.3254 3.3428 15.2143 3.28902 15.0869 3.28027H2.06543L3.17383 2.39062L4.5625 1.27441C4.65694 1.18914 4.70988 1.08224 4.72266 0.975586C4.73564 0.866401 4.70742 0.752293 4.63477 0.65332L4.62891 0.646484L4.62402 0.637695C4.60233 0.605727 4.57071 0.576035 4.53027 0.551758C4.48966 0.527373 4.44179 0.509707 4.38965 0.50293C4.33756 0.49617 4.28473 0.500706 4.23535 0.514648Z" fill="black" stroke="black"/>
<path d="M11.4902 7.91553C11.4384 7.92327 11.3905 7.94137 11.3506 7.96631C11.3108 7.99118 11.2807 8.02205 11.2598 8.0542L11.248 8.07178C11.1776 8.17063 11.151 8.28391 11.166 8.39209C11.1812 8.50063 11.2387 8.60868 11.3398 8.69287L12.75 9.79541L13.8936 10.6899H0.927734C0.801343 10.7068 0.691966 10.7625 0.615234 10.8423C0.537046 10.9236 0.500105 11.0213 0.5 11.1157C0.5 11.2103 0.536901 11.3087 0.615234 11.3901C0.691439 11.4693 0.801624 11.5255 0.928711 11.5425H13.9355L12.8271 12.4321L11.4434 13.5444C11.3469 13.6297 11.2928 13.737 11.2803 13.8442C11.2709 13.9251 11.2843 14.0086 11.3223 14.0864L11.3691 14.1626L11.377 14.1733C11.4049 14.2132 11.4453 14.2506 11.498 14.2778C11.5494 14.3044 11.6094 14.3186 11.6719 14.3208C11.7577 14.3179 11.8347 14.2879 11.8906 14.2417L11.8945 14.2388L15.3184 11.4634C15.3742 11.4149 15.4171 11.3588 15.4453 11.2993C15.474 11.2387 15.4883 11.1751 15.4883 11.1118C15.4883 11.0484 15.4741 10.9841 15.4453 10.9233C15.4174 10.8645 15.3762 10.8084 15.3213 10.7603L11.7764 7.98975L11.7734 7.98779C11.7383 7.95988 11.6944 7.93734 11.6445 7.92432C11.5948 7.91136 11.542 7.90787 11.4902 7.91553Z" fill="black" stroke="black"/>
</svg>
