<svg width="13" height="14" viewBox="0 0 13 14" fill="none" xmlns="http://www.w3.org/2000/svg">
<path d="M7.05469 0.875V1.36719C9.02344 1.69531 10.5547 3.41797 10.5547 5.46875V6.39844C10.5547 7.62891 10.9648 8.83203 11.7305 9.81641L12.1406 10.3086C12.3047 10.5273 12.332 10.8008 12.2227 11.0195C12.1133 11.2383 11.8945 11.375 11.6484 11.375H0.710938C0.4375 11.375 0.21875 11.2383 0.109375 11.0195C0 10.8008 0.0273438 10.5273 0.191406 10.3086L0.601562 9.81641C1.36719 8.83203 1.80469 7.62891 1.80469 6.39844V5.46875C1.80469 3.41797 3.30859 1.69531 5.30469 1.36719V0.875C5.30469 0.410156 5.6875 0 6.17969 0C6.64453 0 7.05469 0.410156 7.05469 0.875ZM5.96094 2.625C4.375 2.625 3.11719 3.91016 3.11719 5.46875V6.39844C3.11719 7.71094 2.73438 8.96875 2.02344 10.0625H10.3086C9.59766 8.96875 9.24219 7.71094 9.24219 6.39844V5.46875C9.24219 3.91016 7.95703 2.625 6.39844 2.625H5.96094ZM7.92969 12.25C7.92969 12.7148 7.73828 13.1797 7.41016 13.5078C7.08203 13.8359 6.61719 14 6.17969 14C5.71484 14 5.25 13.8359 4.92188 13.5078C4.59375 13.1797 4.42969 12.7148 4.42969 12.25H7.92969Z" fill="black"/>
</svg>
