<svg width="18" height="18" viewBox="0 0 18 18" fill="none" xmlns="http://www.w3.org/2000/svg">
<path d="M11.8625 16.75C14.5618 16.75 16.75 14.5558 16.75 11.8491C16.75 9.14245 14.5618 6.94824 11.8625 6.94824C9.16327 6.94824 6.97507 9.14245 6.97507 11.8491C6.97507 14.5558 9.16327 16.75 11.8625 16.75Z" stroke="black" stroke-width="1.5" stroke-miterlimit="10"/>
<path d="M14.5617 6.26375C14.6711 6.05016 14.7604 5.82676 14.8283 5.59646C14.9323 4.85903 14.919 4.10971 14.7888 3.37646C14.762 3.2968 14.7051 3.23088 14.6303 3.19289C14.5555 3.15489 14.4688 3.14785 14.3889 3.17328C14.3419 3.18825 14.2991 3.21428 14.2641 3.24921L12.6026 4.90672L10.8121 3.11661L12.4704 1.45802C12.5281 1.3982 12.5603 1.31825 12.5603 1.23506C12.5603 1.15186 12.5281 1.07191 12.4704 1.01209C12.435 0.976957 12.3919 0.950592 12.3446 0.9351C11.8633 0.77866 11.3556 0.720482 10.8516 0.764001C9.90019 0.859368 9.01828 1.3064 8.37759 2.01805C7.7369 2.72969 7.38329 3.65498 7.38565 4.61372C7.39117 4.91447 7.43234 5.2135 7.50829 5.5045L1.56933 10.7369C1.33053 10.9478 1.13562 11.2039 0.99579 11.4906C0.855962 11.7772 0.77397 12.0887 0.754519 12.4072C0.735068 12.7257 0.778541 13.0449 0.882444 13.3465C0.986346 13.6481 1.14863 13.9262 1.35998 14.1647C1.57134 14.4033 1.82759 14.5976 2.11404 14.7366C2.40049 14.8756 2.7115 14.9565 3.0292 14.9746C3.34691 14.9927 3.66506 14.9478 3.96538 14.8423C4.26571 14.7368 4.54231 14.5729 4.77929 14.3599C4.85206 14.2954 4.9208 14.2265 4.98511 14.1535L5.41168 13.6648" stroke="black" stroke-width="1.5" stroke-miterlimit="10" stroke-linecap="round"/>
<path d="M11.4192 11.9043H13.1966C13.4097 11.9043 13.5852 12.0779 13.5853 12.2949V12.2959C13.5853 12.513 13.4098 12.6865 13.1966 12.6865H11.4192C11.2061 12.6865 11.0306 12.513 11.0306 12.2959V12.2949C11.0306 12.0779 11.2061 11.9043 11.4192 11.9043Z" fill="#666666" stroke="black"/>
<path d="M11.4192 10.1216H11.4202C11.6332 10.1217 11.8078 10.2952 11.8079 10.5122V12.2954C11.8077 12.5123 11.6331 12.6859 11.4202 12.686H11.4192C11.2062 12.686 11.0308 12.5123 11.0306 12.2954V10.5122L11.0384 10.4331C11.0749 10.2545 11.2327 10.1216 11.4192 10.1216Z" fill="#666666" stroke="black"/>
</svg>
